<svg xmlns="http://www.w3.org/2000/svg">
  <symbol id="hero-banner" viewBox="0 0 889 596" fill="none" xmlns="http://www.w3.org/2000/svg">
    <g clip-path="url(#clip0_181_1015)">
    <g clip-path="url(#clip1_181_1015)">
    <path d="M387.457 438.674C311.494 481.449 354.27 586.913 379.345 591.338C398.658 594.746 462.149 592.792 492.921 591.338L731.134 415.074L591.745 395.899C548.97 395.899 448.228 404.454 387.457 438.674Z" fill="white"/>
    <path d="M492.921 591.338C491.822 591.393 494.111 591.281 492.921 591.338ZM492.921 591.338C462.149 592.792 398.658 594.746 379.345 591.338C354.27 586.913 311.494 481.449 387.457 438.674C448.228 404.454 548.97 395.899 591.745 395.899L731.134 415.074L492.921 591.338Z" stroke="black" stroke-width="2.91102"/>
    <path d="M408.106 453.152C460.616 443.122 503.244 473.965 517.994 490.64C520.458 487.195 523.122 483.789 525.998 480.44C521.464 460.527 433.181 439.14 408.106 453.152Z" fill="#000001"/>
    <path d="M487.596 593.52C489.46 593.439 491.239 593.358 492.92 593.278L687.486 449.312C678.915 446.413 656.823 437.494 637.029 425.009C502.733 440.923 481.451 543.981 487.596 593.52Z" fill="#0E1729"/>
    <path d="M709.745 593.277C806.357 562.302 731.132 422.176 731.132 417.014L694.994 412.042C510.913 423.405 483.576 537.6 492.918 593.277L523.984 849.191H604.037L610.919 593.277H709.745Z" fill="white" stroke="black" stroke-width="2.91102"/>
    <path d="M591.745 540.178C603.545 551.978 609.446 580.495 610.921 593.278H621.983C619.033 578.774 608.855 547.848 591.745 540.178Z" fill="#000001"/>
    <rect x="94" y="593" width="796" height="3" fill="black"/>
    <path d="M606.714 146.088C602.83 141.143 592.73 125.958 583.407 104.77C585.526 102.297 589.551 94.8104 588.704 84.6398C577.686 82.9447 571.009 59.2134 569.048 47.5596C583.679 39.4435 571.212 17.7929 575.991 16.8366C581.288 15.7766 595.061 21.0738 595.061 34.8464C595.061 48.619 618.657 42.118 624.725 39.0841C639.556 31.6681 634.26 49.6796 627.903 66.63C624.513 72.5628 636.378 83.9341 642.735 88.8781C644.429 105.829 629.315 131.962 621.546 142.909C622.606 174.692 622.818 238.258 615.19 238.258C610.105 228.088 607.421 172.573 606.714 146.088Z" fill="white" stroke="black" stroke-width="1.94068"/>
    <path d="M597.177 49.6725C595.411 51.4383 592.939 56.4529 597.177 62.3858" stroke="#241715" stroke-width="0.970341"/>
    <path d="M605.652 65.5718C604.946 69.4564 601.838 75.3186 595.058 67.6907" stroke="#241715" stroke-width="0.970341"/>
    <path d="M628.96 52.8538C630.372 48.9692 632.138 41.4119 627.9 42.2594" stroke="#241715" stroke-width="0.970341"/>
    <path d="M587.572 96.2916C588.506 93.0569 589.075 89.1066 588.702 84.6383C594.573 87.817 604.592 88.8765 625.781 74.0435C626.627 85.0616 600.661 93.4664 587.572 96.2916Z" fill="black"/>
    <path d="M641.674 16.8356C649.09 34.846 632.139 59.213 627.901 66.629C634.258 49.6786 638.495 31.6671 624.723 39.0832C618.75 42.2994 595.059 48.6181 595.059 34.8454C595.059 21.0728 581.286 15.7756 575.989 16.8356C571.21 17.7919 583.677 39.4426 569.047 47.5587C567.46 48.4386 565.556 49.1594 563.276 49.6775C568.573 42.2615 566.454 43.3209 562.216 25.3105C557.979 7.30016 577.049 3.06296 595.059 0.944096C613.069 -1.17477 634.258 -1.17477 641.674 16.8356Z" fill="black"/>
    <path d="M741.26 131.256C727.699 113.457 669.924 95.5883 642.732 88.8785C644.427 105.829 629.313 131.962 621.544 142.91C622.604 174.693 622.815 238.259 615.188 238.259C610.102 228.088 607.418 172.574 606.712 146.088C602.827 141.144 592.728 125.959 583.405 104.77C581.286 111.127 524.076 154.563 514.541 168.336C505.006 182.109 501.828 314.538 501.828 326.192C501.828 337.846 497.59 417.303 532.552 417.303C560.521 417.303 674.869 421.188 732.784 422.6C741.26 332.901 754.82 149.054 741.26 131.256Z" fill="black"/>
    <path d="M501.831 326.185C559.747 314.178 675.578 300.971 675.578 344.196C675.578 387.42 621.9 411.849 595.061 418.659M675.578 98.3068C668.515 101.518 653.542 116.629 650.152 151.379C645.914 194.815 632.311 209.647 621.291 209.647M610.477 211.766C601.454 216.71 581.712 220.454 574.932 195.875C566.457 165.151 548.774 148.2 529.011 153.497M707.361 110.061C705.242 109.165 671.341 132.309 668.162 185.28C664.984 238.252 631.082 337.839 561.159 284.867C534.672 258.381 509.151 241.784 504.865 243.549M583.408 418.339C592.942 409.163 609.47 387.844 599.299 375.979C589.128 364.113 533.497 380.216 506.953 389.751M746.348 158.795C723.464 172.92 681.299 217.911 695.708 284.867C708.421 323.007 731.653 319.122 741.68 312.413M737.847 364.325C724.153 364.505 698.038 376.254 703.124 421.805" stroke="white" stroke-width="0.970341"/>
    <path d="M615.188 417.293V239.308" stroke="#027269" stroke-width="0.970341"/>
    <path d="M615.824 415.56L610.617 376.847C598.777 378.995 574.119 381.076 555.071 382.881C535.13 384.771 530.105 395.241 543.49 398.585C536.489 397.711 528.65 407.364 539.822 411.686C531.627 414.597 547.836 417.845 555.782 417.861C551.234 418.548 543.349 419.815 544.421 424.634C545.493 429.452 592.469 420.592 615.824 415.56Z" fill="white"/>
    <path d="M615.824 415.561L610.617 376.848C607.863 377.348 604.415 377.844 600.505 378.334L588.66 420.952C598.612 419.142 608.409 417.159 615.824 415.561Z" fill="black"/>
    <path d="M556.106 418.146L572.58 413.509" stroke="black" stroke-width="0.970341"/>
    <path d="M543.596 407.801L572.476 404.295" stroke="black" stroke-width="0.970341"/>
    <path d="M543.491 398.584L572.988 393.482" stroke="black" stroke-width="0.970341"/>
    <path d="M772.692 381.565C775.255 340.991 778.054 136.522 732.286 125.5C679.382 112.759 680.076 307.755 703.043 352.24L595.016 363.222L605.152 430.623C657.673 426.955 768.449 448.703 772.692 381.565Z" fill="black"/>
    <path d="M732.285 125.499C679.382 112.759 680.075 307.754 703.043 352.24L595.015 363.222" stroke="white" stroke-width="0.970341"/>
    <path d="M754.322 154.883C737.975 156.661 701.645 166.099 692.733 188.221M764.493 190.481C749.761 196.925 715.271 218.617 710.92 240.885C706.57 263.152 752.646 255.634 771.274 251.505M772.404 290.493C756.92 297.722 702.644 302.52 690.473 285.973M772.968 359.993C757.111 350.37 711.46 331.161 699.514 338.522M656.571 356.603C649.79 371.294 660.409 425.315 690.473 431.189" stroke="white" stroke-width="0.970341"/>
    <path d="M309.324 279.458H491.26C494.447 279.458 497.311 281.407 498.481 284.372L552.515 421.342C553.685 424.307 556.548 426.256 559.736 426.256H701.251C703.854 426.256 705.964 428.366 705.964 430.969C705.964 433.573 703.854 435.683 701.251 435.683H365.118C361.935 435.683 359.075 433.74 357.902 430.782L302.107 290.082C300.087 284.986 303.842 279.458 309.324 279.458Z" fill="white" stroke="black" stroke-width="2.91102"/>
    <path d="M497.651 282.129L557.502 426.256H553.46C550.326 426.256 547.499 424.371 546.294 421.477L489.65 285.456C488.462 282.603 490.559 279.458 493.65 279.458C495.401 279.458 496.98 280.512 497.651 282.129Z" fill="black"/>
    <path d="M357.902 430.782L302.107 290.082C300.087 284.986 303.842 279.458 309.324 279.458H323.352C324.507 279.458 325.643 279.716 326.692 280.199C331.658 282.486 339.954 286.082 353.731 293.043C399.822 316.331 405.644 365.818 395.941 390.077C388.074 409.743 492.053 430.071 532.905 435.683H365.118C361.935 435.683 359.075 433.74 357.902 430.782Z" fill="black"/>
    <ellipse cx="11.5736" cy="13.3097" rx="11.5736" ry="13.3097" transform="matrix(-0.936312 0.351169 0.351169 0.936312 426.862 327.975)" fill="black"/>
    </g>
    </g>
    <defs>
    <clipPath id="clip0_181_1015">
    <rect width="889" height="596" fill="white"/>
    </clipPath>
    <clipPath id="clip1_181_1015">
    <rect width="889" height="596" fill="white"/>
    </clipPath>
    </defs>
  </symbol>
  <symbol id="header-logo" viewBox="0 0 83 120" fill="none" xmlns="http://www.w3.org/2000/svg">
    <path d="M45.0955 146.088C41.2109 141.143 31.1109 125.958 21.7879 104.77C23.9068 102.297 27.9326 94.8104 27.0851 84.6398C16.067 82.9447 9.39039 59.2134 7.42936 47.5596C22.0602 39.4435 9.59283 17.7929 14.3719 16.8366C19.669 15.7766 33.4417 21.0738 33.4417 34.8464C33.4417 48.619 57.0384 42.118 63.1058 39.0841C77.9374 31.6681 72.6407 49.6796 66.2841 66.63C62.8939 72.5628 74.7592 83.9341 81.1157 88.8781C82.8103 105.829 67.6963 131.962 59.9275 142.909C60.987 174.692 61.1989 238.258 53.5709 238.258C48.4856 228.088 45.8017 172.573 45.0955 146.088Z" fill="white" stroke="black" stroke-width="1.94068"/>
    <path d="M35.5582 49.6725C33.7925 51.4383 31.3205 56.4529 35.5582 62.3858" stroke="#241715" stroke-width="0.970341"/>
    <path d="M44.0331 65.5718C43.3268 69.4564 40.2191 75.3186 33.4387 67.6907" stroke="#241715" stroke-width="0.970341"/>
    <path d="M67.3407 52.8538C68.7533 48.9692 70.519 41.4119 66.2813 42.2594" stroke="#241715" stroke-width="0.970341"/>
    <path d="M25.9536 96.2916C26.8875 93.0569 27.4558 89.1066 27.0835 84.6383C32.9542 87.817 42.9734 88.8765 64.1621 74.0435C65.0083 85.0616 39.0423 93.4664 25.9536 96.2916Z" fill="black"/>
    <path d="M80.0552 16.8356C87.4712 34.846 70.5203 59.213 66.2825 66.629C72.6391 49.6786 76.8763 31.6671 63.1042 39.0832C57.1314 42.2994 33.4401 48.6181 33.4401 34.8454C33.4401 21.0728 19.6674 15.7756 14.3703 16.8356C9.59123 17.7919 22.0586 39.4426 7.42776 47.5587C5.84155 48.4386 3.93681 49.1594 1.65707 49.6775C6.95424 42.2615 4.83537 43.3209 0.597633 25.3105C-3.64011 7.30016 15.4297 3.06296 33.4401 0.944096C51.4505 -1.17477 72.6391 -1.17477 80.0552 16.8356Z" fill="black"/>
  </symbol>
  <symbol id="download-icon" viewBox="0 0 17 17" fill="none" xmlns="http://www.w3.org/2000/svg">
    <path d="M16 11V12C16 13.4001 16 14.1002 15.7275 14.635C15.4878 15.1054 15.1054 15.4878 14.635 15.7275C14.1002 16 13.4001 16 12 16H5C3.59987 16 2.8998 16 2.36502 15.7275C1.89462 15.4878 1.51217 15.1054 1.27248 14.635C1 14.1002 1 13.4001 1 12V11M12.6667 6.83333L8.5 11M8.5 11L4.33333 6.83333M8.5 11V1" stroke="white" stroke-width="2" stroke-linecap="round" stroke-linejoin="round"/>
  </symbol>
  <symbol id="icon-vk" viewBox="0 0 22 14" fill="none" xmlns="http://www.w3.org/2000/svg">
    <path d="M11.9825 14C4.46596 14 0.178638 8.74474 0 0H3.76515C3.88882 6.41842 6.66459 9.13714 8.86321 9.6977V0H12.4085V5.53553C14.5796 5.2973 16.8607 2.77477 17.6302 0H21.1755C20.8855 1.43908 20.3075 2.80165 19.4776 4.0025C18.6477 5.20335 17.5837 6.21663 16.3523 6.97898C17.7269 7.67555 18.941 8.6615 19.9145 9.87175C20.888 11.082 21.5988 12.489 22 14H18.0974C17.7373 12.6876 17.0054 11.5128 15.9934 10.6228C14.9814 9.73284 13.7343 9.16727 12.4085 8.997V14H11.9825Z" fill="currentColor"/>
  </symbol>
  <symbol id="icon-tg" viewBox="0 0 19 17" fill="none" xmlns="http://www.w3.org/2000/svg">
    <path d="M19 0.602225L15.9946 16.2923C15.9946 16.2923 15.5741 17.3801 14.4189 16.8584L7.48458 11.3526L7.45242 11.3364C8.38909 10.4654 15.6524 3.70266 15.9698 3.39612C16.4613 2.92136 16.1562 2.63873 15.5856 2.99736L4.85679 10.053L0.717638 8.61077C0.717638 8.61077 0.0662573 8.37083 0.00359284 7.84911C-0.0598962 7.32653 0.739076 7.0439 0.739076 7.0439L17.6131 0.188948C17.6131 0.188948 19 -0.44207 19 0.602225Z" fill="currentColor"/>
  </symbol>
  <symbol id="icon-whatsapp" viewBox="0 0 21 21" fill="none" xmlns="http://www.w3.org/2000/svg">
    <path d="M17.9268 3.0625C15.9512 1.09375 13.3171 0 10.5366 0C4.7561 0 0.0731696 4.66667 0.0731696 10.4271C0.0731696 12.25 0.585366 14.0729 1.46341 15.6042L0 21L5.56098 19.5417C7.09756 20.3438 8.78049 20.7812 10.5366 20.7812C16.3171 20.7812 21 16.1146 21 10.3542C20.9268 7.65625 19.9024 5.03125 17.9268 3.0625ZM15.5854 14.1458C15.3659 14.7292 14.3415 15.3125 13.8293 15.3854C13.3902 15.4583 12.8049 15.4583 12.2195 15.3125C11.8537 15.1667 11.3415 15.0208 10.7561 14.7292C8.12195 13.6354 6.43903 11.0104 6.29268 10.7917C6.14634 10.6458 5.19512 9.40625 5.19512 8.09375C5.19512 6.78125 5.85366 6.19792 6.07317 5.90625C6.29268 5.61458 6.58536 5.61458 6.80488 5.61458C6.95122 5.61458 7.17073 5.61458 7.31707 5.61458C7.46341 5.61458 7.68293 5.54167 7.90244 6.05208C8.12195 6.5625 8.63414 7.875 8.70731 7.94792C8.78049 8.09375 8.78049 8.23958 8.70731 8.38542C8.63414 8.53125 8.56097 8.67708 8.41463 8.82292C8.26829 8.96875 8.12195 9.1875 8.04878 9.26042C7.90244 9.40625 7.7561 9.55208 7.90244 9.77083C8.04878 10.0625 8.56097 10.8646 9.36585 11.5937C10.3902 12.4687 11.1951 12.7604 11.4878 12.9063C11.7805 13.0521 11.9268 12.9792 12.0732 12.8333C12.2195 12.6875 12.7317 12.1042 12.878 11.8125C13.0244 11.5208 13.2439 11.5938 13.4634 11.6667C13.6829 11.7396 15 12.3958 15.2195 12.5417C15.5122 12.6875 15.6585 12.7604 15.7317 12.8333C15.8049 13.0521 15.8049 13.5625 15.5854 14.1458Z" fill="currentColor"/>
  </symbol>
  <symbol id="icon-google" viewBox="0 0 20 20" fill="none" xmlns="http://www.w3.org/2000/svg">
    <path fill-rule="evenodd" clip-rule="evenodd" d="M19.6 10.2273C19.6 9.5182 19.5364 8.83639 19.4182 8.18184H10V12.05H15.3818C15.15 13.3 14.4455 14.3591 13.3864 15.0682V17.5773H16.6182C18.5091 15.8364 19.6 13.2728 19.6 10.2273Z" fill="currentColor"/>
    <path fill-rule="evenodd" clip-rule="evenodd" d="M9.99961 20C12.6996 20 14.9633 19.1045 16.6178 17.5772L13.386 15.0681C12.4905 15.6681 11.3451 16.0227 9.99961 16.0227C7.39506 16.0227 5.19051 14.2636 4.40415 11.8999H1.06323V14.4909C2.70869 17.7591 6.09052 20 9.99961 20Z" fill="currentColor"/>
    <path fill-rule="evenodd" clip-rule="evenodd" d="M4.40455 11.9C4.20455 11.3 4.09092 10.659 4.09092 9.99995C4.09092 9.34086 4.20455 8.69995 4.40455 8.09995V5.50903H1.06364C0.386364 6.85904 0 8.38631 0 9.99995C0 11.6136 0.386364 13.1409 1.06364 14.4909L4.40455 11.9Z" fill="currentColor"/>
    <path fill-rule="evenodd" clip-rule="evenodd" d="M9.99961 3.97728C11.4678 3.97728 12.786 4.48183 13.8224 5.47274L16.6905 2.60455C14.9587 0.990911 12.6951 0 9.99961 0C6.09052 0 2.70869 2.24091 1.06323 5.5091L4.40415 8.10002C5.19051 5.73638 7.39506 3.97728 9.99961 3.97728Z" fill="currentColor"/>
  </symbol>
  <symbol id="icon-git" viewBox="0 0 56 56" fill="none" xmlns="http://www.w3.org/2000/svg">
    <path d="M49.2333 25.7833L30.2167 6.76665C29.6333 6.18331 28.8167 5.83331 28 5.83331C27.1833 5.83331 26.3667 6.18331 25.7833 6.76665L21.7 10.85L26.4833 15.6333C26.95 15.4 27.4167 15.2833 28 15.2833C29.9833 15.2833 31.5 16.8 31.5 18.7833C31.5 19.3666 31.3833 19.8333 31.15 20.3L35.8167 24.9666C36.2833 24.7333 36.75 24.6166 37.3333 24.6166C39.3167 24.6166 40.8333 26.1333 40.8333 28.1166C40.8333 30.1 39.3167 31.6166 37.3333 31.6166C35.35 31.6166 33.8333 30.1 33.8333 28.1166C33.8333 27.5333 33.95 27.0666 34.1833 26.6L29.5167 21.9333C29.4 21.9333 29.2833 22.05 29.1667 22.05V34.1833C30.5667 34.65 31.5 35.9333 31.5 37.45C31.5 39.4333 29.9833 40.95 28 40.95C26.0167 40.95 24.5 39.4333 24.5 37.45C24.5 35.9333 25.4333 34.65 26.8333 34.1833V21.9333C25.4333 21.4666 24.5 20.1833 24.5 18.6666C24.5 18.0833 24.6167 17.6166 24.85 17.15L20.0667 12.3666L6.76668 25.7833C6.18334 26.3666 5.83334 27.1833 5.83334 28C5.83334 28.8166 6.18334 29.6333 6.76668 30.2166L25.7833 49.2333C26.3667 49.8167 27.1833 50.1666 28 50.1666C28.8167 50.1666 29.6333 49.8167 30.2167 49.2333L49.2333 30.2166C49.8167 29.6333 50.1667 28.8166 50.1667 28C50.1667 27.1833 49.8167 26.3666 49.2333 25.7833Z" fill="currentColor"/>
  </symbol>
  <symbol id="icon-js" fill="currentColor" xmlns="http://www.w3.org/2000/svg" viewBox="0 0 50 50">
    <path d="M 43.335938 4 L 6.667969 4 C 5.195313 4 4 5.195313 4 6.667969 L 4 43.332031 C 4 44.804688 5.195313 46 6.667969 46 L 43.332031 46 C 44.804688 46 46 44.804688 46 43.335938 L 46 6.667969 C 46 5.195313 44.804688 4 43.335938 4 Z M 27 36.183594 C 27 40.179688 24.65625 42 21.234375 42 C 18.140625 42 15.910156 39.925781 15 38 L 18.144531 36.097656 C 18.75 37.171875 19.671875 38 21 38 C 22.269531 38 23 37.503906 23 35.574219 L 23 23 L 27 23 Z M 35.675781 42 C 32.132813 42 30.121094 40.214844 29 38 L 32 36 C 32.816406 37.335938 33.707031 38.613281 35.589844 38.613281 C 37.171875 38.613281 38 37.824219 38 36.730469 C 38 35.425781 37.140625 34.960938 35.402344 34.199219 L 34.449219 33.789063 C 31.695313 32.617188 29.863281 31.148438 29.863281 28.039063 C 29.863281 25.179688 32.046875 23 35.453125 23 C 37.878906 23 39.621094 23.84375 40.878906 26.054688 L 37.910156 27.964844 C 37.253906 26.789063 36.550781 26.328125 35.453125 26.328125 C 34.335938 26.328125 33.628906 27.039063 33.628906 27.964844 C 33.628906 29.109375 34.335938 29.570313 35.972656 30.28125 L 36.925781 30.691406 C 40.171875 32.078125 42 33.496094 42 36.683594 C 42 40.117188 39.300781 42 35.675781 42 Z" />
  </symbol>
  <symbol id="icon-sass" viewBox="0 0 56 56" fill="none" xmlns="http://www.w3.org/2000/svg">
    <path d="M46.5115 30.282C44.7172 30.2913 43.1632 30.7218 41.8612 31.3646C41.3852 30.4138 40.9022 29.5773 40.8217 28.9555C40.7272 28.2298 40.6175 27.7958 40.7318 26.9313C40.8462 26.0668 41.3467 24.8418 41.3397 24.7496C41.3327 24.6575 41.2277 24.2176 40.1928 24.2095C39.158 24.2025 38.2725 24.409 38.1687 24.682C38.0648 24.955 37.8653 25.5698 37.7417 26.2115C37.5608 27.1495 35.6755 30.4966 34.6057 32.2466C34.2557 31.563 33.9582 30.961 33.8963 30.485C33.8018 29.7593 33.6922 29.3253 33.8065 28.4608C33.9208 27.5963 34.4213 26.3713 34.4143 26.2791C34.4073 26.187 34.3023 25.7471 33.2675 25.739C32.2327 25.732 31.3472 25.9385 31.2433 26.2115C31.1395 26.4845 31.0275 27.1226 30.8163 27.741C30.604 28.3581 28.0992 33.9406 27.4423 35.3885C27.1075 36.1258 26.817 36.7185 26.6117 37.1221L26.6105 37.1198C26.6105 37.1198 26.5977 37.1466 26.5767 37.1921C26.4005 37.5363 26.2967 37.7265 26.2967 37.7265C26.2967 37.7265 26.2978 37.7288 26.3002 37.7335C26.1602 37.9866 26.0108 38.2211 25.9373 38.2211C25.886 38.2211 25.7822 37.548 25.9595 36.624C26.3328 34.6873 27.2277 31.668 27.2195 31.563C27.2148 31.5093 27.3863 30.9831 26.635 30.7078C25.9047 30.4406 25.6445 30.8863 25.578 30.8875C25.5138 30.8886 25.466 31.045 25.466 31.045C25.466 31.045 26.2792 27.6488 23.9143 27.6488C22.435 27.6488 20.3863 29.267 19.3772 30.7335C18.7402 31.0811 17.3763 31.8255 15.9308 32.62C15.3755 32.9256 14.8085 33.2371 14.2707 33.5335C14.2345 33.4926 14.1972 33.453 14.1598 33.4121C11.291 30.352 5.98967 28.1878 6.21367 24.073C6.29533 22.5773 6.81567 18.6386 16.4022 13.8623C24.255 9.94931 30.5422 11.0261 31.6283 13.412C33.18 16.8221 28.2683 23.1583 20.1133 24.073C17.0065 24.4218 15.3697 23.2166 14.9625 22.7686C14.5343 22.2961 14.4702 22.2751 14.3103 22.3638C14.0502 22.5085 14.2147 22.925 14.3103 23.1735C14.5542 23.807 15.5528 24.9305 17.2562 25.4905C18.7553 25.9828 22.4035 26.2523 26.8147 24.5455C31.7567 22.6345 35.6148 17.3168 34.4808 12.873C33.3282 8.35331 25.8335 6.86698 18.7402 9.38698C14.5133 10.8873 9.9435 13.2416 6.657 16.3146C2.74983 19.9686 2.12683 23.1501 2.3835 24.479C3.29583 29.2016 9.80467 32.277 12.411 34.5555C12.2827 34.6266 12.1613 34.6931 12.0517 34.7538C10.745 35.4001 5.78317 37.9971 4.54183 40.74C3.13367 43.8515 4.76583 46.0845 5.84617 46.3855C9.19333 47.3165 12.628 45.6411 14.4748 42.8878C16.3205 40.1356 16.0953 36.5505 15.2483 34.9148C15.2378 34.895 15.2262 34.8751 15.2157 34.8541C15.5528 34.6546 15.897 34.4516 16.2377 34.251C16.9027 33.8601 17.556 33.4961 18.1218 33.1881C17.8045 34.0561 17.5723 35.098 17.4522 36.6018C17.3098 38.3681 18.0343 40.6513 18.9817 41.5496C19.3993 41.9451 19.901 41.9545 20.2183 41.9545C21.3208 41.9545 21.8237 41.0375 22.3778 39.9525C23.0568 38.6225 23.66 37.0731 23.66 37.0731C23.66 37.0731 22.904 41.2568 24.9643 41.2568C25.7157 41.2568 26.4705 40.2826 26.8077 39.7868C26.8088 39.7926 26.8088 39.795 26.8088 39.795C26.8088 39.795 26.8287 39.7623 26.8672 39.6981C26.9453 39.5791 26.9897 39.5033 26.9897 39.5033C26.9897 39.5033 26.9908 39.4951 26.9932 39.4811C27.2953 38.9573 27.965 37.7626 28.9683 35.7921C30.2657 33.2465 31.5093 30.0568 31.5093 30.0568C31.5093 30.0568 31.6248 30.8361 32.004 32.1265C32.2268 32.8848 32.7005 33.7236 33.075 34.5286C32.774 34.9463 32.5897 35.1855 32.5897 35.1855C32.5897 35.1855 32.5908 35.1901 32.5943 35.1983C32.354 35.518 32.0845 35.8621 31.8022 36.1981C30.7778 37.4173 29.5587 38.8103 29.3953 39.2116C29.2028 39.6853 29.2483 40.033 29.6205 40.3141C29.8923 40.5183 30.3753 40.551 30.8805 40.5171C31.801 40.4553 32.4473 40.2266 32.767 40.0878C33.2652 39.9116 33.845 39.6351 34.3887 39.235C35.3932 38.4965 35.9987 37.4406 35.9403 36.0406C35.9077 35.2695 35.6627 34.5053 35.3512 33.7843C35.4422 33.6536 35.5332 33.5206 35.6253 33.3876C37.2085 31.073 38.437 28.5296 38.437 28.5296C38.437 28.5296 38.5525 29.309 38.9317 30.5993C39.123 31.2515 39.5022 31.9643 39.8428 32.662C38.3542 33.8718 37.4313 35.2776 37.1105 36.1993C36.5178 37.905 36.9822 38.6773 37.8525 38.8535C38.2468 38.9328 38.8045 38.752 39.2233 38.5746C39.7448 38.402 40.3713 38.1138 40.957 37.6833C41.9615 36.9448 42.9275 35.9111 42.8692 34.5123C42.8423 33.8753 42.6697 33.243 42.4352 32.6363C43.6975 32.1101 45.3308 31.8185 47.4122 32.0611C51.877 32.5826 52.752 35.3698 52.5852 36.5365C52.4172 37.7031 51.4815 38.3448 51.1677 38.5385C50.855 38.7321 50.7593 38.7998 50.785 38.9433C50.8235 39.1521 50.9682 39.1451 51.2353 39.0996C51.6028 39.0378 53.5792 38.1511 53.6643 35.9975C53.7705 33.2605 51.1513 30.2575 46.5115 30.282ZM12.0983 41.8833C10.619 43.4968 8.554 44.1058 7.66733 43.5925C6.71067 43.0383 7.08983 40.663 8.904 38.9503C10.01 37.9073 11.438 36.946 12.3853 36.3545C12.6012 36.225 12.9173 36.0348 13.3023 35.8038C13.3665 35.7676 13.4027 35.7478 13.4027 35.7478L13.4015 35.7455C13.4762 35.7011 13.552 35.6556 13.6302 35.6078C14.2917 38.045 13.6512 40.1905 12.0983 41.8833ZM22.8725 34.5601C22.358 35.8155 21.28 39.0285 20.6232 38.8558C20.0597 38.7076 19.7167 36.2658 20.5112 33.8625C20.9102 32.6526 21.7642 31.2071 22.2658 30.646C23.0732 29.743 23.9622 29.4478 24.178 29.8141C24.4522 30.2808 23.1957 33.7726 22.8725 34.5601ZM31.773 38.8068C31.5548 38.9211 31.3542 38.9923 31.262 38.9375C31.1932 38.8966 31.3518 38.7461 31.3518 38.7461C31.3518 38.7461 32.4648 37.548 32.9035 37.0031C33.159 36.6858 33.4542 36.309 33.7762 35.889C33.7785 35.931 33.7797 35.973 33.7797 36.0138C33.7773 37.4488 32.3913 38.4171 31.773 38.8068ZM38.6295 37.2435C38.4662 37.128 38.4942 36.7535 39.0297 35.5856C39.2397 35.1271 39.7203 34.356 40.5533 33.6186C40.6502 33.922 40.7085 34.2125 40.7073 34.4831C40.6968 36.2891 39.4088 36.9635 38.6295 37.2435Z" fill="currentColor"/>
  </symbol>
  <symbol id="icon-ts" fill="currentColor" xmlns="http://www.w3.org/2000/svg" viewBox="0 0 50 50">
    <path d="M45,4H5C4.447,4,4,4.448,4,5v40c0,0.552,0.447,1,1,1h40c0.553,0,1-0.448,1-1V5C46,4.448,45.553,4,45,4z M29,26.445h-5V42h-4	V26.445h-5V23h14V26.445z M30.121,41.112v-4.158c0,0,2.271,1.712,4.996,1.712c2.725,0,2.62-1.782,2.62-2.026	c0-2.586-7.721-2.586-7.721-8.315c0-7.791,11.25-4.717,11.25-4.717l-0.14,3.704c0,0-1.887-1.258-4.018-1.258s-2.9,1.013-2.9,2.096	c0,2.795,7.791,2.516,7.791,8.141C42,44.955,30.121,41.112,30.121,41.112z" />
  </symbol>
  <symbol id="icon-react" viewBox="-10.5 -9.45 21 18.9" fill="none" xmlns="http://www.w3.org/2000/svg">
    <circle cx="0" cy="0" r="2" fill="currentColor"></circle>
    <g stroke="currentColor" stroke-width="1" fill="none">
      <ellipse rx="10" ry="4.5"></ellipse>
      <ellipse rx="10" ry="4.5" transform="rotate(60)"></ellipse>
      <ellipse rx="10" ry="4.5" transform="rotate(120)"></ellipse>
    </g>
  </symbol>
</svg>
